<?xml version="1.0" standalone="no"?>
<!DOCTYPE svg PUBLIC "-//W3C//DTD SVG 20010904//EN"
 "http://www.w3.org/TR/2001/REC-SVG-20010904/DTD/svg10.dtd">
<svg version="1.0" xmlns="http://www.w3.org/2000/svg"
 width="512.000000pt" height="512.000000pt" viewBox="0 0 512.000000 512.000000"
 preserveAspectRatio="xMidYMid meet">
<metadata>
Created by potrace 1.14, written by Peter Selinger 2001-2017
</metadata>
<g transform="translate(0.000000,512.000000) scale(0.100000,-0.100000)"
fill="#000000" stroke="none">
<path d="M1185 4451 c-11 -5 -101 -114 -199 -242 -99 -129 -199 -259 -223
-289 -45 -57 -273 -355 -475 -620 -65 -85 -124 -162 -131 -170 -113 -139 -151
-197 -151 -232 0 -26 6 -42 19 -52 33 -25 1277 -826 1848 -1190 390 -249 889
-559 972 -604 267 -147 604 -264 935 -327 14 -3 36 -7 50 -9 14 -3 48 -8 75
-11 28 -3 58 -8 67 -11 46 -14 288 -29 448 -28 256 2 400 22 434 59 12 13 75
102 140 199 l120 176 3 71 c2 56 -3 89 -24 150 -14 43 -30 79 -34 79 -5 0 -9
6 -9 14 0 19 -103 129 -158 169 -26 19 -101 62 -167 97 -66 35 -151 83 -190
108 -62 39 -222 156 -235 171 -3 3 -43 40 -90 81 -106 94 -323 313 -344 348
-4 7 6 25 29 46 26 25 35 40 31 58 -8 43 -17 56 -47 68 -26 11 -35 10 -81 -14
-49 -25 -51 -26 -64 -8 -7 10 -29 38 -48 61 -20 24 -36 46 -36 49 1 4 18 19
40 34 44 31 56 61 41 101 -21 54 -76 59 -144 13 l-36 -25 -57 80 c-53 76 -55
81 -38 94 11 8 22 15 27 15 4 0 16 14 26 31 15 25 17 37 9 60 -19 56 -63 68
-125 33 l-42 -24 -57 92 c-102 164 -192 348 -202 410 -17 106 -1 187 50 262
54 79 57 86 46 117 -12 34 -35 49 -77 49 -37 0 -91 -59 -132 -145 -38 -81 -42
-103 -43 -229 l-1 -110 -50 -13 c-193 -50 -388 -77 -575 -77 -392 -1 -577 96
-796 420 -121 179 -201 369 -220 528 -6 43 -30 86 -49 86 -7 0 -19 2 -27 4 -7
3 -22 1 -33 -3z m14 -333 c25 -80 130 -298 143 -298 4 0 8 -5 8 -10 0 -28 164
-233 251 -315 97 -92 191 -145 324 -185 59 -18 77 -22 165 -37 25 -4 128 -7
230 -7 204 1 335 17 539 65 69 16 131 27 138 25 7 -3 27 -33 44 -68 17 -35 65
-118 106 -186 41 -68 73 -125 71 -126 -1 -1 -61 -38 -131 -81 -133 -82 -157
-103 -157 -143 0 -29 42 -72 71 -72 23 0 91 37 222 120 43 28 80 50 82 50 4 0
106 -141 111 -154 2 -6 -41 -39 -95 -74 -111 -71 -128 -86 -134 -123 -7 -34
29 -78 64 -81 25 -2 84 30 215 116 l50 34 47 -59 c26 -32 47 -63 47 -68 0 -5
-45 -37 -100 -70 -54 -34 -102 -66 -105 -71 -27 -44 -1 -106 49 -115 29 -6 48
2 149 65 l116 71 43 -48 c137 -152 295 -306 445 -435 109 -94 274 -202 438
-288 213 -111 299 -201 320 -333 l6 -34 -68 -10 c-78 -12 -412 -14 -523 -2
-89 9 -166 18 -200 24 -14 3 -43 7 -65 11 -22 3 -47 7 -55 9 -8 2 -31 7 -50
10 -224 38 -561 152 -781 263 -101 52 -469 277 -899 551 -452 288 -453 289
-479 285 -31 -5 -71 -47 -71 -74 0 -11 12 -33 28 -49 15 -16 187 -130 382
-253 428 -272 838 -528 844 -528 2 0 35 -17 73 -39 90 -51 276 -132 399 -175
124 -43 456 -132 526 -141 36 -4 121 -17 143 -22 11 -2 61 -8 110 -13 50 -5
110 -12 134 -15 54 -7 397 -8 429 -1 12 3 22 2 22 -1 0 -3 -23 -36 -51 -75
-27 -38 -52 -75 -55 -82 -8 -22 -161 -39 -339 -40 -148 0 -288 10 -425 29
-171 25 -174 25 -190 30 -8 2 -31 6 -50 9 -112 17 -453 119 -580 173 -201 86
-417 214 -1185 702 -322 204 -734 469 -777 499 -26 17 -49 32 -51 32 -4 0
-264 167 -647 415 -36 23 -123 79 -195 125 -72 46 -132 85 -134 87 -4 3 24 42
106 145 l53 67 118 -76 c163 -106 204 -132 307 -198 50 -32 135 -87 190 -122
55 -36 136 -88 181 -116 44 -29 125 -81 180 -116 283 -183 261 -171 297 -164
75 15 75 116 -1 156 -44 23 -392 249 -398 258 -3 5 5 30 17 56 109 242 122
507 38 756 -48 140 -164 320 -215 333 -52 13 -104 -36 -91 -88 4 -13 24 -46
45 -74 75 -100 140 -259 157 -389 8 -54 7 -223 0 -235 -3 -4 -7 -25 -11 -46
-10 -64 -67 -224 -80 -224 -3 0 -130 80 -282 178 -152 99 -296 191 -319 205
l-43 27 56 73 c30 39 61 79 67 87 7 8 144 187 306 398 162 210 297 382 301
382 3 0 16 -33 29 -72z"/>
</g>
</svg>
